<?xml version="1.0" standalone="no"?><!DOCTYPE svg PUBLIC "-//W3C//DTD SVG 1.1//EN" "http://www.w3.org/Graphics/SVG/1.1/DTD/svg11.dtd"><svg class="icon" height="512" viewBox="0 0 1024 1024" version="1.1" xmlns="http://www.w3.org/2000/svg"><path d="M512 1021.725c-281.514 0-509.725-228.211-509.725-509.725s228.211-509.725 509.725-509.725 509.725 228.211 509.725 509.725-228.211 509.725-509.725 509.725zM231.36 668.267c-6.554 6.554-10.631 15.655-10.631 25.777v72.818c0 20.025 16.311 36.409 36.409 36.409h72.818c10.049 0 19.151-4.15 25.777-10.631l338.311-338.384-124.3-124.3-338.384 338.311zM792.64 304.178l-72.818-72.818c-6.554-6.554-15.655-10.631-25.777-10.631s-19.223 4.078-25.777 10.631l-47.040 47.114 124.3 124.3 47.040-47.040c6.554-6.626 10.704-15.729 10.704-25.777s-4.15-19.151-10.631-25.777z" fill="#0cb687" /></svg>